 <svg version="1.0" xmlns="http://www.w3.org/2000/svg"  width="300.000000pt" height="131.000000pt" viewBox="0 0 300.000000 131.000000"  preserveAspectRatio="xMidYMid meet">  <g transform="translate(0.000000,131.000000) scale(0.100000,-0.100000)" fill="#000000" stroke="none"> <path d="M1652 1191 c-76 -49 -94 -138 -41 -211 l31 -42 -21 -22 c-20 -22 -21 -32 -21 -357 l0 -336 23 -21 c20 -19 35 -22 103 -22 71 0 83 3 102 23 22 23 22 28 22 354 0 324 0 331 -22 358 -14 18 -18 32 -12 40 37 50 46 69 50 102 6 45 -18 97 -58 126 -40 29 -115 33 -156 8z m155 -55 c34 -40 32 -99 -6 -137 -25 -24 -38 -29 -79 -29 -67 0 -102 33 -102 97 0 36 6 50 30 75 28 28 35 30 82 26 40 -4 57 -12 75 -32z m3 -576 l0 -340 -87 0 -88 0 2 337 c2 186 3 339 3 341 0 1 38 2 85 2 l85 0 0 -340z"/> <path d="M145 1128 l-26 -23 0 -439 0 -439 22 -23 22 -24 283 0 c340 0 329 -4 329 109 0 60 -3 74 -23 93 -21 22 -32 23 -195 28 l-172 5 -5 348 -5 349 -24 19 c-18 15 -39 19 -102 19 -66 0 -82 -3 -104 -22z m195 -394 l0 -375 200 3 200 3 0 -72 0 -73 -292 0 -293 0 0 445 0 445 93 0 92 0 0 -376z"/> <path d="M2127 940 c-20 -5 -56 -19 -78 -31 -140 -71 -172 -247 -66 -357 41 -43 86 -66 168 -87 86 -21 109 -32 109 -50 0 -11 -12 -15 -49 -15 -41 0 -59 7 -111 42 -62 41 -62 41 -94 24 -42 -22 -106 -103 -106 -132 0 -37 63 -98 132 -129 74 -33 205 -45 286 -25 122 29 202 123 202 238 0 139 -68 210 -239 251 -89 21 -108 32 -96 51 11 18 89 4 138 -24 37 -23 43 -23 68 -11 31 17 95 88 102 114 8 33 -32 79 -97 111 -50 25 -78 31 -146 35 -47 2 -102 0 -123 -5z m248 -64 c59 -30 85 -50 85 -62 -1 -5 -21 -31 -45 -59 -34 -38 -48 -48 -58 -40 -8 6 -26 19 -41 29 -29 21 -109 32 -150 22 -31 -8 -50 -40 -42 -71 7 -27 48 -45 156 -69 126 -28 182 -71 201 -155 17 -77 -6 -147 -66 -199 -83 -74 -259 -83 -383 -21 -36 19 -75 46 -86 62 l-20 27 54 55 53 54 44 -39 c80 -70 209 -77 234 -12 18 47 -13 72 -126 102 -110 29 -149 46 -182 82 -30 32 -43 71 -43 126 0 87 62 162 157 188 75 22 198 12 258 -20z"/> <path d="M836 919 l-27 -21 3 -277 c3 -261 4 -278 25 -317 30 -56 94 -111 145 -124 56 -16 164 -9 207 13 42 21 65 22 81 2 9 -11 33 -15 92 -15 70 0 82 3 103 25 l25 24 0 320 c0 339 -3 360 -47 380 -32 14 -138 14 -166 -1 -44 -23 -46 -34 -47 -241 0 -256 -14 -293 -108 -285 -58 5 -62 21 -62 275 l0 222 -26 20 c-39 30 -160 30 -198 0z m186 -265 l3 -246 28 -24 c34 -29 101 -33 148 -8 59 30 69 72 69 312 l0 212 90 0 90 0 0 -340 0 -340 -87 0 -88 0 3 57 c2 50 0 55 -10 38 -58 -91 -165 -127 -283 -94 -51 14 -110 74 -124 124 -5 22 -12 156 -13 298 l-3 257 87 0 87 0 3 -246z"/> <path d="M2625 448 c-50 -28 -75 -71 -75 -129 0 -82 62 -139 152 -139 138 0 192 189 75 260 -36 22 -119 27 -152 8z m134 -42 c59 -31 67 -102 17 -152 -29 -29 -41 -34 -79 -34 -52 0 -101 33 -111 76 -10 38 11 92 42 109 35 18 95 19 131 1z"/> </g> </svg> 
