<?xml version="1.0" standalone="no"?>
<!DOCTYPE svg PUBLIC "-//W3C//DTD SVG 20010904//EN"
 "http://www.w3.org/TR/2001/REC-SVG-20010904/DTD/svg10.dtd">
<svg version="1.0" xmlns="http://www.w3.org/2000/svg"
 width="300.000000pt" height="131.000000pt" viewBox="0 0 300.000000 131.000000"
 preserveAspectRatio="xMidYMid meet">
<metadata>
Created by potrace 1.10, written by Peter Selinger 2001-2011
</metadata>
<g transform="translate(0.000000,131.000000) scale(0.100000,-0.100000)"
fill="#000000" stroke="none">
<path d="M1649 1177 c-42 -28 -59 -60 -59 -111 0 -49 30 -99 73 -120 31 -15
31 -16 6 -16 -14 0 -34 -9 -44 -20 -17 -19 -18 -45 -18 -357 0 -315 1 -337 18
-349 28 -21 179 -19 199 2 14 13 16 59 16 353 0 315 -1 339 -18 354 -10 10
-32 17 -48 17 l-29 1 31 13 c51 22 74 61 74 123 0 33 -6 63 -16 79 -37 56
-125 71 -185 31z m124 -18 c63 -32 77 -111 28 -160 -24 -24 -38 -29 -76 -29
-38 0 -52 5 -76 29 -83 83 19 214 124 160z m37 -599 l0 -340 -87 0 -88 0 3
340 3 340 84 0 85 0 0 -340z"/>
<path d="M144 1119 c-18 -20 -19 -42 -19 -459 0 -355 3 -440 14 -454 12 -14
46 -16 305 -16 214 0 295 3 304 12 7 7 12 43 12 89 0 110 1 109 -217 109
l-173 0 0 353 c0 419 10 387 -122 387 -74 0 -87 -3 -104 -21z m194 -384 l-3
-376 203 3 202 3 0 -72 0 -73 -292 0 -293 0 0 445 0 445 93 0 92 0 -2 -375z"/>
<path d="M2115 927 c-59 -20 -97 -42 -127 -74 -97 -101 -68 -274 57 -341 17
-9 75 -28 130 -42 91 -24 100 -29 100 -50 0 -17 -7 -26 -29 -31 -52 -14 -107
3 -164 52 -18 16 -41 29 -52 29 -16 0 -130 -113 -130 -130 0 -18 50 -77 85
-102 63 -43 148 -61 257 -56 104 5 150 23 206 80 43 46 62 97 62 169 0 124
-71 192 -239 230 -53 12 -103 28 -111 35 -24 23 4 39 66 38 42 -1 64 -8 94
-29 34 -24 44 -26 65 -17 26 12 105 106 105 126 0 21 -63 74 -115 97 -61 27
-200 36 -260 16z m262 -50 c26 -14 56 -34 67 -45 18 -21 17 -22 -25 -71 -38
-46 -69 -65 -69 -43 0 21 -80 52 -134 52 -60 0 -96 -22 -96 -57 1 -40 27 -55
145 -83 47 -11 104 -29 125 -40 112 -57 129 -225 30 -313 -86 -79 -263 -90
-388 -26 -36 19 -74 46 -85 61 l-20 27 48 50 c27 28 52 51 58 51 5 0 27 -16
49 -35 77 -66 205 -70 229 -7 17 45 -14 73 -112 98 -186 47 -239 94 -239 211
0 87 63 163 157 189 72 21 199 11 260 -19z"/>
<path d="M836 911 c-16 -17 -17 -46 -17 -273 0 -232 2 -259 20 -309 24 -62 68
-111 123 -133 77 -33 245 -11 273 34 5 8 11 4 19 -12 11 -21 19 -23 100 -26
136 -4 126 -33 126 365 0 397 8 373 -118 373 -127 0 -122 9 -122 -239 0 -126
-4 -220 -11 -240 -13 -38 -54 -61 -108 -61 -69 0 -71 9 -71 276 0 277 6 264
-117 264 -66 0 -83 -3 -97 -19z m186 -257 l3 -246 28 -24 c34 -29 101 -33 148
-8 59 30 69 72 69 312 l0 212 90 0 90 0 0 -340 0 -340 -87 0 -88 0 3 57 c2 50
0 55 -10 38 -26 -40 -80 -85 -116 -95 -82 -23 -180 -7 -232 37 -63 52 -65 61
-70 366 l-5 277 87 0 87 0 3 -246z"/>
<path d="M2619 433 c-39 -24 -59 -65 -59 -119 0 -42 4 -51 40 -86 37 -35 46
-38 97 -38 51 0 58 3 94 39 34 34 39 44 39 86 0 86 -50 135 -137 135 -26 0
-60 -8 -74 -17z m140 -27 c59 -31 67 -102 17 -152 -29 -29 -41 -34 -80 -34
-62 0 -110 41 -110 93 0 44 19 81 48 95 31 15 93 14 125 -2z"/>
</g>
</svg>
