<?xml version="1.0" standalone="no"?>
<!DOCTYPE svg PUBLIC "-//W3C//DTD SVG 20010904//EN"
 "http://www.w3.org/TR/2001/REC-SVG-20010904/DTD/svg10.dtd">
<svg version="1.0" xmlns="http://www.w3.org/2000/svg"
 width="300.000000pt" height="131.000000pt" viewBox="0 0 300.000000 131.000000"
 preserveAspectRatio="xMidYMid meet">
<metadata>
Created by potrace 1.10, written by Peter Selinger 2001-2011
</metadata>
<g transform="translate(0.000000,131.000000) scale(0.100000,-0.100000)"
fill="#000000" stroke="none">
<path d="M0 655 l0 -655 1500 0 1500 0 0 655 0 655 -1500 0 -1500 0 0 -655z
m1789 531 c43 -23 61 -58 61 -119 0 -62 -23 -101 -74 -123 l-31 -13 29 -1 c16
0 38 -7 48 -17 17 -15 18 -39 18 -354 0 -294 -2 -340 -16 -353 -20 -21 -171
-23 -199 -2 -17 12 -18 34 -18 349 0 312 1 338 18 357 10 11 30 20 44 20 25 0
25 1 -6 16 -63 31 -92 121 -60 184 30 60 123 88 186 56z m-1437 -63 c17 -15
18 -40 18 -370 l0 -353 173 0 c218 0 217 1 217 -109 0 -46 -5 -82 -12 -89 -9
-9 -90 -12 -304 -12 -259 0 -293 2 -305 16 -11 14 -14 99 -14 454 0 521 -11
480 123 480 65 0 90 -4 104 -17z m2023 -212 c52 -23 115 -76 115 -97 0 -20
-79 -114 -105 -126 -21 -9 -31 -7 -65 17 -30 21 -52 28 -94 29 -62 1 -90 -15
-66 -38 8 -7 58 -23 111 -35 168 -38 239 -106 239 -230 0 -72 -19 -123 -62
-169 -56 -57 -102 -75 -206 -80 -109 -5 -194 13 -257 56 -35 25 -85 84 -85
102 0 17 114 130 130 130 11 0 34 -13 52 -29 57 -49 112 -66 164 -52 22 5 29
14 29 31 0 21 -9 26 -100 50 -113 29 -148 46 -187 87 -97 101 -68 275 57 341
92 48 237 54 330 13z m-1343 2 c16 -15 18 -36 18 -247 0 -267 2 -276 71 -276
54 0 95 23 108 61 7 20 11 114 11 240 0 248 -5 239 122 239 126 0 118 24 118
-373 0 -398 10 -369 -126 -365 -81 3 -89 5 -100 26 -8 16 -14 20 -19 12 -28
-45 -196 -67 -273 -34 -55 22 -99 71 -123 133 -18 50 -20 77 -20 309 -1 306
-6 292 114 292 61 0 85 -4 99 -17z m1738 -479 c39 -24 60 -65 60 -119 0 -42
-5 -52 -39 -86 -36 -36 -43 -39 -94 -39 -51 0 -60 3 -97 38 -36 35 -40 44 -40
86 0 86 49 135 133 136 28 0 61 -7 77 -16z"/>
<path d="M1649 1141 c-23 -23 -29 -38 -29 -71 0 -33 6 -48 29 -71 65 -65 181
-21 181 68 -1 92 -115 139 -181 74z"/>
<path d="M1638 560 l-3 -340 88 0 87 0 0 340 0 340 -85 0 -84 0 -3 -340z"/>
<path d="M155 665 l0 -445 293 0 292 0 0 73 0 72 -202 -3 -203 -3 3 376 2 375
-92 0 -93 0 0 -445z"/>
<path d="M2117 896 c-94 -26 -157 -102 -157 -189 0 -117 53 -164 239 -211 98
-25 129 -53 112 -98 -24 -63 -152 -59 -229 7 -22 19 -44 35 -49 35 -6 0 -31
-23 -58 -51 l-48 -50 20 -27 c11 -15 49 -42 85 -61 125 -64 302 -53 388 26 99
88 82 256 -30 313 -21 11 -78 29 -125 40 -118 28 -144 43 -145 83 0 35 36 57
96 57 54 0 134 -31 134 -52 0 -22 31 -3 69 43 42 49 43 50 25 71 -11 11 -41
31 -67 45 -61 30 -188 40 -260 19z"/>
<path d="M850 623 c5 -305 7 -314 70 -366 52 -44 150 -60 232 -37 36 10 90 55
116 95 10 17 12 12 10 -38 l-3 -57 88 0 87 0 0 340 0 340 -90 0 -90 0 0 -212
c0 -240 -10 -282 -69 -312 -47 -25 -114 -21 -148 8 l-28 24 -3 246 -3 246 -87
0 -87 0 5 -277z"/>
<path d="M2634 408 c-29 -14 -48 -51 -48 -95 0 -52 48 -93 110 -93 109 0 156
138 63 186 -32 16 -94 17 -125 2z"/>
</g>
</svg>
